
<svg aria-hidden="true" style="position: absolute; width: 0; height: 0; overflow: hidden;" version="1.1" xmlns="http://www.w3.org/2000/svg" xmlns:xlink="http://www.w3.org/1999/xlink">
<defs>
<symbol id="icon-home" viewBox="0 0 13 12" fill="none" xmlns="http://www.w3.org/2000/svg">
<path d="M12.8449 5.85484C13.0696 5.60772 13.0479 5.22897 12.7964 5.00908L7.25687 0.161935C7.00543 -0.0579491 6.60231 -0.0533429 6.35616 0.172319L0.797761 5.26751C0.551613 5.49318 0.539532 5.87145 0.771013 6.11206L0.91037 6.25719C1.14157 6.49781 1.51527 6.52649 1.74453 6.32107L2.15994 5.94907V11.3953C2.15994 11.7295 2.43069 12 2.7646 12H4.93127C5.26518 12 5.53594 11.7295 5.53594 11.3953V7.58515H8.29956V11.3953C8.29475 11.7292 8.53367 11.9998 8.86757 11.9998H11.1637C11.4976 11.9998 11.7684 11.7292 11.7684 11.3951V6.02575C11.7684 6.02575 11.8831 6.12628 12.0247 6.25069C12.166 6.37485 12.4627 6.2753 12.6874 6.02794L12.8449 5.85484Z" fill="#D31342"/>
</symbol>
<symbol id="icon-facebook" viewBox="0 0 16 32">
<path fill="#fff" style="fill: var(--color1, #fff)" d="M14.266 15.97h-4.176v15.39h-6.327v-15.39h-3.009v-5.409h3.009v-3.5c0-2.503 1.182-6.422 6.384-6.422l4.687 0.020v5.25h-3.401c-0.558 0-1.342 0.28-1.342 1.474v3.183h4.729l-0.553 5.403z"></path>
</symbol>
<symbol id="icon-telegram" viewBox="0 0 40 32">
<path fill="#fff" style="fill: var(--color1, #fff)" d="M16.205 20.751l-0.635 8.339c0.909 0 1.302-0.364 1.774-0.802l4.261-3.801 8.829 6.035c1.619 0.842 2.76 0.399 3.197-1.39l5.797-25.346c0.514-2.234-0.866-3.108-2.443-2.56l-34.065 12.172c-2.325 0.842-2.29 2.052-0.395 2.6l8.709 2.528 20.229-11.814c0.952-0.588 1.818-0.263 1.106 0.326l-16.364 13.713z"></path>
</symbol>
<symbol id="icon-close" viewBox="0 0 16 16" fill="none" xmlns="http://www.w3.org/2000/svg">
<path d="M1.25928 1L14.7408 15" stroke="white"/>
<path d="M1 14.7407L15 1.25924" stroke="white"/>
</symbol>
<symbol id="icon-button-arrow" viewBox="0 0 8 10" fill="none" xmlns="http://www.w3.org/2000/svg">
<path d="M1 1L5 5L1 9" stroke="#D41443" stroke-width="2" stroke-linecap="round" stroke-linejoin="round"/>
</symbol>
<symbol id="icon-Burger-menu" viewBox="0 0 20 14">
<path d="M0 1H20"/>
<path d="M0 7H20"/>
<path d="M0 13H20"/>
</symbol>
<symbol id="icon-github" viewBox="0 0 20 20" fill="none" xmlns="http://www.w3.org/2000/svg">
<path d="M10 0C4.50745 0 0 4.50745 0 10C0 14.687 3.28888 18.9447 7.65625 20V16.6916C7.22351 16.7863 6.82526 16.7891 6.38474 16.6592C5.79376 16.4848 5.31357 16.0912 4.95712 15.4909C4.72992 15.1076 4.32724 14.6919 3.90717 14.7224L3.80417 13.5551C4.71252 13.4773 5.49835 14.1086 5.96481 14.8923C6.17203 15.2408 6.41052 15.4451 6.71661 15.5354C7.01248 15.6226 7.33017 15.5807 7.70035 15.45C7.79327 14.7089 8.13278 14.4315 8.38928 14.0408V14.0402C5.78461 13.6517 4.74655 12.2699 4.33456 11.1792C3.7886 9.73099 4.08157 7.92175 5.047 6.77841C5.06577 6.75613 5.09964 6.69785 5.08652 6.6571C4.64386 5.31998 5.18326 4.21387 5.20309 4.09653C5.71396 4.24759 5.79697 3.94455 7.42218 4.93195L7.70309 5.10071C7.82059 5.17075 7.78366 5.13077 7.90115 5.12192C8.57971 4.93759 9.29504 4.83582 9.99985 4.82666C10.71 4.83582 11.4207 4.93759 12.1274 5.12939L12.2183 5.13855C12.2104 5.13733 12.243 5.13275 12.2978 5.1001C14.328 3.87039 14.2551 4.27231 14.7995 4.09531C14.8192 4.2128 15.3514 5.33691 14.9135 6.6571C14.8544 6.83899 16.6736 8.50479 15.6653 11.1787C15.2533 12.2699 14.2154 13.6517 11.6107 14.0402V14.0408C11.9446 14.5497 12.3457 14.8204 12.3436 15.8702V20C16.7111 18.9447 19.9998 14.687 19.9998 10C20 4.50745 15.4926 0 10 0V0Z" fill="white"/>
</symbol>
<symbol id="icon-arrow-right" viewBox="0 0 32 32">
<path d="M19.414 27.414l10-10c0.781-0.781 0.781-2.047 0-2.828l-10-10c-0.781-0.781-2.047-0.781-2.828 0s-0.781 2.047 0 2.828l6.586 6.586h-19.172c-1.105 0-2 0.895-2 2s0.895 2 2 2h19.172l-6.586 6.586c-0.39 0.39-0.586 0.902-0.586 1.414s0.195 1.024 0.586 1.414c0.781 0.781 2.047 0.781 2.828 0z"></path>
</symbol>
<symbol id="forButton" viewBox="0 0 22 32">
<path fill="none" stroke="#d41443" style="stroke: var(--color1, #d41443)" stroke-linejoin="round" stroke-linecap="round" stroke-miterlimit="4" stroke-width="6.4" d="M4.545 3.2l13.7 12.8-13.7 12.8"></path>
</symbol>

<symbol id="icon-milk" viewBox="0 0 32 32">
<path d="M26.538 13.421c-0.198-0.239-0.492-0.378-0.802-0.378h-19.471c-0.31 0-0.604 0.139-0.802 0.378s-0.278 0.554-0.219 0.859l3.245 16.877c0.094 0.49 0.523 0.844 1.021 0.844h12.981c0.499 0 0.927-0.354 1.021-0.844l3.245-16.877c0.059-0.305-0.022-0.62-0.219-0.859zM24.344 15.123c-0.478 3.857-3.774 6.473-8.344 6.473s-7.866-2.616-8.344-6.473h16.688zM21.631 29.92h-11.263l-1.684-8.758c1.847 1.583 4.388 2.514 7.315 2.514s5.468-0.931 7.315-2.514l-1.684 8.758z"></path>
<path d="M7.53 7.891c0.521 0.521 1.213 0.807 1.949 0.807s1.428-0.287 1.949-0.807l0.287-0.287c0.488 0.267 0.999 0.488 1.529 0.659v1.111c0 1.52 1.236 2.756 2.756 2.756s2.756-1.236 2.756-2.756v-1.111c0.53-0.171 1.041-0.391 1.529-0.659l0.287 0.287c0.521 0.521 1.213 0.807 1.949 0.807s1.428-0.287 1.949-0.807c1.075-1.075 1.075-2.823 0-3.898l-0.347-0.347c0.503-0.732 0.811-1.256 0.811-2.606 0-0.574-0.466-1.040-1.040-1.040h-15.789c-0.574 0-1.040 0.466-1.040 1.040 0 1.35 0.308 1.874 0.811 2.606l-0.347 0.347c-1.075 1.075-1.075 2.823-0 3.898zM9.001 5.464l0.942-0.942c0.336-0.336 0.402-0.857 0.159-1.266-0.192-0.323-0.364-0.574-0.503-0.776-0.11-0.16-0.195-0.284-0.26-0.399h13.322c-0.065 0.116-0.15 0.239-0.26 0.399-0.139 0.201-0.311 0.452-0.503 0.776-0.243 0.409-0.177 0.93 0.159 1.266l0.942 0.942c0.128 0.128 0.198 0.297 0.198 0.478s-0.070 0.35-0.198 0.478c-0.128 0.128-0.297 0.198-0.478 0.198s-0.35-0.070-0.478-0.198l-0.866-0.866c-0.354-0.354-0.909-0.405-1.322-0.124-0.719 0.49-1.514 0.834-2.365 1.023-0.476 0.106-0.815 0.528-0.815 1.015v1.905c0 0.373-0.303 0.676-0.676 0.676s-0.676-0.303-0.676-0.676v-1.905c0-0.488-0.339-0.91-0.815-1.015-0.851-0.189-1.647-0.533-2.365-1.023-0.178-0.121-0.382-0.181-0.586-0.181-0.268 0-0.535 0.104-0.736 0.305l-0.866 0.866c-0.128 0.128-0.297 0.198-0.478 0.198s-0.35-0.070-0.478-0.198c-0.128-0.128-0.198-0.297-0.198-0.478s0.070-0.351 0.198-0.478z"></path>
</symbol>
<symbol id="icon-apples" viewBox="0 0 32 32">
<path d="M29.626 21.411c-1.292-0.458-2.382-0.344-3.242 0.018 0.145-0.877 0.47-1.832 1.17-2.481 0.431-0.4 0.456-1.074 0.056-1.505s-1.074-0.456-1.505-0.056c-1.229 1.14-1.706 2.748-1.874 4.081-0.32-0.144-0.673-0.253-1.058-0.311l1.89-9.83c0.060-0.312-0.022-0.634-0.225-0.879s-0.503-0.387-0.821-0.387h-0.204c0.094-0.5 0.141-0.997 0.137-1.47-0.016-1.994-0.903-3.495-2.374-4.017-1.41-0.5-2.59-0.35-3.507 0.066 0.145-0.976 0.494-2.063 1.282-2.794 0.431-0.4 0.456-1.074 0.056-1.505s-1.074-0.456-1.505-0.056c-1.32 1.225-1.815 2.965-1.982 4.386-0.735-0.348-1.644-0.527-2.708-0.33-1.094-1.571-2.613-2.296-4.089-1.942-1.451 0.349-2.358 1.115-2.901 1.962-0.41-0.899-0.712-2.001-0.452-3.036 0.143-0.57-0.203-1.149-0.773-1.292s-1.149 0.203-1.292 0.773c-0.439 1.746 0.095 3.476 0.729 4.758-1.016 0.137-2.117 0.65-3.049 1.866-0.578 0.755-0.773 1.698-0.596 2.7-0.173 0.065-0.329 0.173-0.449 0.318-0.202 0.245-0.285 0.567-0.225 0.879l3.809 19.809c0.096 0.501 0.535 0.864 1.046 0.864h15.237c0.511 0 0.949-0.362 1.046-0.864l0.038-0.195c0.287 0.198 0.596 0.363 0.927 0.487 1.266 0.471 2.447 0.278 3.044 0.118 0.316 0.085 0.795 0.179 1.364 0.179 0.506 0 1.084-0.075 1.68-0.297 2.36-0.879 3.614-3.839 3.596-6.178-0.015-1.904-0.866-3.339-2.276-3.839zM22.674 12.191c-0.49 4.705-4.452 7.91-9.971 7.91s-9.481-3.204-9.971-7.91h19.942zM16.032 7.515c0.184 0.349 0.536 0.567 0.93 0.567s0.746-0.218 0.93-0.567c0.029-0.048 0.29-0.466 0.769-0.777 0.629-0.408 1.35-0.46 2.203-0.157 0.851 0.302 0.952 1.518 0.956 2.027 0.004 0.463-0.064 0.962-0.191 1.453h-7.126c0.236-1.19 0.094-2.492-0.289-3.669 0.377 0.022 0.724 0.137 1.047 0.346 0.479 0.311 0.74 0.729 0.769 0.777zM3.078 8.724c0.55-0.719 1.182-1.068 1.932-1.069h0.002c0.57 0 1.016 0.208 1.066 0.232 0.341 0.19 0.749 0.172 1.079-0.037 0.331-0.211 0.51-0.591 0.481-0.983-0.006-0.077-0.115-1.893 1.983-2.397 0.876-0.211 1.625 0.754 1.906 1.178 0.807 1.22 1.221 3.108 0.777 4.413h-9.349c-0.141-0.443-0.179-0.943 0.122-1.336zM5.852 29.87l-2.111-10.978c0.138 0.133 0.281 0.263 0.427 0.389 2.208 1.901 5.239 2.948 8.535 2.948s6.328-1.047 8.535-2.948c0.052-0.044 0.102-0.090 0.152-0.135l-0.431 2.243c-0.020 0.007-0.041 0.013-0.061 0.021-1.41 0.5-2.261 1.935-2.276 3.839-0.009 1.164 0.297 2.483 0.898 3.622l-0.192 0.999h-13.477zM27.562 29.432c-0.943 0.351-1.881 0.017-1.916 0.005-0.25-0.097-0.518-0.099-0.768-0-0.009 0.004-0.96 0.352-1.917-0.005-1.338-0.498-2.223-2.556-2.21-4.165 0.004-0.466 0.095-1.578 0.858-1.849 0.349-0.124 0.661-0.175 0.939-0.175 1.107 0 1.657 0.812 1.782 1.024 0.184 0.35 0.535 0.569 0.931 0.569s0.747-0.219 0.931-0.569c0.156-0.265 0.977-1.468 2.721-0.849 0.763 0.271 0.854 1.383 0.858 1.849 0.013 1.609-0.872 3.667-2.21 4.166z"></path>
</symbol>
<symbol id="icon-ice-cream" viewBox="0 0 32 32">
<path d="M29.336 6.985c0-0.022-0.002-0.043-0.002-0.064 0.001-0.001 0.001-0.001 0.001-0.001 0-0.006-0.003-0.012-0.003-0.018-0.028-1.36-0.436-2.65-1.169-3.758-0.020-0.031-0.038-0.063-0.059-0.094-0.082-0.119-0.173-0.233-0.263-0.348-0.055-0.071-0.107-0.145-0.165-0.214-0.078-0.093-0.164-0.179-0.246-0.269-0.069-0.074-0.132-0.151-0.204-0.222-0.010-0.010-0.021-0.018-0.030-0.027-0.013-0.013-0.024-0.027-0.037-0.039-0.105-0.101-0.216-0.189-0.325-0.282-0.053-0.045-0.103-0.094-0.158-0.137-2.791-2.227-6.981-1.982-9.631 0.667l-1.044 1.044-1.044-1.044c-2.648-2.649-6.834-2.894-9.625-0.672-0.075 0.059-0.144 0.125-0.217 0.188-0.091 0.079-0.185 0.152-0.272 0.236-0.011 0.010-0.020 0.022-0.030 0.032-0.012 0.012-0.026 0.022-0.038 0.034-0.087 0.086-0.165 0.18-0.248 0.27-0.066 0.072-0.135 0.141-0.197 0.215-0.073 0.087-0.138 0.179-0.206 0.269-0.075 0.098-0.153 0.194-0.223 0.296-0.034 0.050-0.063 0.104-0.097 0.155-0.709 1.095-1.107 2.364-1.135 3.699 0 0.007-0.003 0.014-0.003 0.020 0 0.001 0 0.001 0 0.001 0 0.021-0.002 0.043-0.002 0.064-0.018 1.923 0.723 3.732 2.083 5.093l8.612 8.591c-0.011 0.043-0.026 0.083-0.026 0.129v8.534c0 1.471 1.196 2.667 2.667 2.667s2.667-1.196 2.667-2.667v-8.534c0-0.046-0.015-0.086-0.026-0.129l8.611-8.591c1.361-1.36 2.102-3.168 2.084-5.093zM3.739 6.878c0.001-0.039 0.005-0.079 0.007-0.118 0.007-0.153 0.017-0.305 0.035-0.454 0.004-0.030 0.010-0.060 0.014-0.090 0.022-0.164 0.049-0.328 0.085-0.489 0.001-0.006 0.003-0.011 0.004-0.017 0.162-0.718 0.456-1.397 0.864-2.009 0.013-0.020 0.024-0.041 0.037-0.060 0.057-0.083 0.122-0.161 0.183-0.242 0.059-0.078 0.116-0.157 0.179-0.233 0.053-0.062 0.111-0.121 0.166-0.181 0.079-0.086 0.156-0.173 0.24-0.256 0.105-0.102 0.214-0.196 0.325-0.289 0.036-0.030 0.071-0.065 0.108-0.094 2.197-1.738 5.499-1.668 7.747 0.165 0.161 0.132 0.316 0.272 0.466 0.421l1.421 1.421c0.209 0.209 0.546 0.209 0.754 0l1.421-1.421c2.233-2.232 5.854-2.449 8.208-0.59 0.047 0.038 0.092 0.081 0.138 0.12 0.103 0.087 0.206 0.174 0.303 0.269 0.078 0.076 0.149 0.157 0.222 0.236 0.061 0.066 0.125 0.13 0.183 0.199 0.060 0.071 0.113 0.146 0.169 0.219 0.065 0.084 0.133 0.167 0.193 0.254 0.009 0.013 0.017 0.028 0.026 0.041 0.513 0.762 0.843 1.63 0.967 2.547 0.003 0.025 0.009 0.050 0.012 0.074 0.019 0.152 0.028 0.306 0.035 0.46 0.002 0.038 0.005 0.076 0.007 0.115l-0.107 0.438c-0.178 0.715-0.816 1.215-1.553 1.215h-0.998c-0.882 0-1.6 0.718-1.6 1.6v1.067c0 0.294-0.239 0.533-0.533 0.533s-0.533-0.239-0.533-0.533v-1.067c0-0.882-0.718-1.6-1.6-1.6s-1.6 0.718-1.6 1.6c0 0.294-0.239 0.533-0.533 0.533s-0.533-0.239-0.533-0.533c0-0.882-0.718-1.6-1.6-1.6s-1.6 0.718-1.6 1.6v2.134c0 0.294-0.239 0.533-0.533 0.533s-0.533-0.239-0.533-0.533v-2.134c0-0.882-0.718-1.6-1.6-1.6s-1.6 0.718-1.6 1.6c0 0.294-0.239 0.533-0.533 0.533s-0.533-0.239-0.533-0.533c0-0.882-0.718-1.6-1.6-1.6h-3.132c-0.737 0-1.376-0.5-1.553-1.215l-0.109-0.438zM17.6 29.333c0 0.695-0.448 1.281-1.067 1.502v-3.102c0-0.295-0.239-0.533-0.533-0.533s-0.533 0.238-0.533 0.533v3.102c-0.619-0.221-1.067-0.808-1.067-1.502v-7.726c0.486 0.311 1.042 0.47 1.6 0.47s1.114-0.159 1.6-0.47v7.726zM17.346 20.455c-0.742 0.741-1.948 0.741-2.691 0l-9.153-9.131c-0.591-0.591-1.042-1.283-1.341-2.035 0.373 0.196 0.795 0.308 1.24 0.308h3.132c0.294 0 0.533 0.239 0.533 0.533 0 0.882 0.718 1.6 1.6 1.6s1.6-0.718 1.6-1.6c0-0.294 0.239-0.533 0.533-0.533s0.533 0.239 0.533 0.533v2.134c0 0.882 0.718 1.6 1.6 1.6s1.6-0.718 1.6-1.6v-2.134c0-0.294 0.239-0.533 0.533-0.533s0.533 0.239 0.533 0.533c0 0.882 0.718 1.6 1.6 1.6s1.6-0.718 1.6-1.6c0-0.294 0.239-0.533 0.533-0.533s0.533 0.239 0.533 0.533v1.067c0 0.882 0.718 1.6 1.6 1.6s1.6-0.718 1.6-1.6v-1.067c0-0.294 0.239-0.533 0.533-0.533h0.998c0.445 0 0.867-0.112 1.241-0.309-0.299 0.753-0.75 1.444-1.341 2.035l-9.153 9.132z"></path>
<path d="M16.534 25.599c0 0.295-0.239 0.533-0.533 0.533s-0.533-0.239-0.533-0.533c0-0.295 0.239-0.533 0.533-0.533s0.533 0.239 0.533 0.533z"></path>
<path d="M6.79 5.33c-0.147-0.255-0.473-0.343-0.729-0.195l-0.924 0.533c-0.255 0.147-0.342 0.474-0.195 0.729 0.099 0.171 0.278 0.267 0.462 0.267 0.090 0 0.182-0.023 0.266-0.071l0.924-0.533c0.255-0.147 0.342-0.474 0.195-0.729z"></path>
<path d="M10.523 2.663c-0.148-0.255-0.473-0.344-0.729-0.195l-0.924 0.533c-0.255 0.147-0.342 0.473-0.195 0.729 0.099 0.171 0.278 0.267 0.462 0.267 0.090 0 0.182-0.023 0.266-0.071l0.924-0.533c0.255-0.147 0.342-0.473 0.195-0.729z"></path>
<path d="M13.724 5.33c-0.147-0.255-0.474-0.343-0.729-0.195l-0.924 0.533c-0.255 0.147-0.342 0.474-0.195 0.729 0.099 0.171 0.278 0.267 0.462 0.267 0.090 0 0.182-0.023 0.266-0.071l0.924-0.533c0.255-0.147 0.342-0.474 0.195-0.729z"></path>
<path d="M19.591 5.33c-0.148-0.255-0.474-0.343-0.729-0.195l-0.924 0.533c-0.256 0.147-0.343 0.474-0.195 0.729 0.099 0.171 0.278 0.267 0.462 0.267 0.091 0 0.182-0.023 0.266-0.071l0.924-0.533c0.256-0.147 0.343-0.474 0.195-0.729z"></path>
<path d="M23.325 2.663c-0.147-0.255-0.474-0.343-0.729-0.195l-0.924 0.533c-0.256 0.147-0.343 0.473-0.195 0.729 0.099 0.171 0.278 0.267 0.462 0.267 0.091 0 0.182-0.023 0.266-0.071l0.924-0.533c0.256-0.147 0.343-0.473 0.195-0.729z"></path>
<path d="M26.525 5.33c-0.148-0.255-0.474-0.343-0.729-0.195l-0.924 0.533c-0.256 0.147-0.343 0.474-0.195 0.729 0.099 0.171 0.278 0.267 0.462 0.267 0.091 0 0.182-0.023 0.266-0.071l0.924-0.533c0.256-0.147 0.343-0.474 0.195-0.729z"></path>
</symbol>
<symbol id="icon-circle-up" viewBox="0 0 32 32">
<path d="M0 16c0 8.837 7.163 16 16 16s16-7.163 16-16-7.163-16-16-16-16 7.163-16 16zM29 16c0 7.18-5.82 13-13 13s-13-5.82-13-13 5.82-13 13-13 13 5.82 13 13z"></path>
<path d="M22.086 20.914l2.829-2.829-8.914-8.914-8.914 8.914 2.828 2.828 6.086-6.086z"></path>
</symbol>
</defs>
</svg>
